# xmcd
#
# Track frame offsets: 
#        151
#        19266
#        43240
#        62531
#        84020
#        105444
#        124954
#        147879
#        170098
#        191295
#        211875
#        231549
#        252164
#        279006
#        300092
#        323144
#        352857
#
# Disc length: 4787 seconds
#
# Revision: 0
# Processed by: cddbd v1.5PL3 Copyright (c) Steve Scherf et al.
# Submitted via: ExactAudioCopy v0.95a5
#
DISCID=df12b111
DTITLE=Santana - De Luxe Collection
DYEAR=1900
DGENRE=Blues
TTITLE0=The Game Of Love -  feat. Michelle Branch
TTITLE1=Black Magic Woman/ Gypsy Queen
TTITLE2=Oye Como Va
TTITLE3=Put Your Lights On - feat. Everlast
TTITLE4=Samba Pa Ti
TTITLE5=You Are My Kind - feat. Seal
TTITLE6=Europa (Earth's Cry Heaven's Smile)
TTITLE7=Smooth - feat. Rob Thomas
TTITLE8=I Love You Much To Much
TTITLE9=Why Don't You and I - feat. Nickelback
TTITLE10=Gypsy Woman
TTITLE11=Corazon Espinado - feat. Mana
TTITLE12=Blues For Salvador
TTITLE13=Feels Like Fire - feat. Dido
TTITLE14=Luz Amor Y Vida
TTITLE15=Saja - Right On
TTITLE16=Adios
EXTD=
EXTT0=
EXTT1=
EXTT2=
EXTT3=
EXTT4=
EXTT5=
EXTT6=
EXTT7=
EXTT8=
EXTT9=
EXTT10=
EXTT11=
EXTT12=
EXTT13=
EXTT14=
EXTT15=
EXTT16=
PLAYORDER=
